<?xml version="1.0" standalone="no"?>
<!DOCTYPE svg PUBLIC "-//W3C//DTD SVG 20010904//EN"
 "http://www.w3.org/TR/2001/REC-SVG-20010904/DTD/svg10.dtd">
<svg version="1.0" xmlns="http://www.w3.org/2000/svg"
 width="200.000000pt" height="200.000000pt" viewBox="0 0 200.000000 200.000000"
 preserveAspectRatio="xMidYMid meet">
<metadata>
Created by potrace 1.14, written by Peter Selinger 2001-2017
</metadata>
<g transform="translate(0.000000,200.000000) scale(0.100000,-0.100000)"
fill="#000000" stroke="none">
<path d="M0 1913 l0 -88 84 -1 c97 -1 92 -6 92 101 l-1 70 -87 3 -88 3 0 -88z"/>
<path d="M220 1913 l0 -89 27 1 c31 0 38 20 38 110 l-1 60 -32 3 -32 3 0 -88z"/>
<path d="M350 1911 l0 -89 30 2 c33 1 31 -6 34 113 l1 63 -32 0 -33 0 0 -89z"/>
<path d="M490 1912 l0 -89 28 3 c15 1 29 2 32 3 3 1 5 38 5 84 l0 82 -33 3
-32 3 0 -89z"/>
<path d="M640 1916 c0 -77 2 -84 21 -89 41 -11 46 0 46 89 l0 84 -34 0 -33 0
0 -84z"/>
<path d="M800 1912 l0 -89 28 3 c15 1 30 2 33 3 4 1 6 38 5 84 l-1 82 -32 3
-33 3 0 -89z"/>
<path d="M969 1993 c-5 -37 -3 -147 3 -156 4 -6 18 -12 32 -13 l26 -1 0 89 0
88 -30 0 c-16 0 -30 -3 -31 -7z"/>
<path d="M1130 1916 c0 -47 3 -87 8 -87 57 -9 57 -10 57 81 l0 85 -32 3 -33 3
0 -85z"/>
<path d="M1293 1915 c0 -47 2 -86 6 -86 55 -11 56 -9 59 84 l3 87 -34 0 -33 0
-1 -85z"/>
<path d="M1444 1913 l1 -88 30 0 30 0 3 88 3 87 -34 0 -34 0 1 -87z"/>
<path d="M1586 1919 c1 -44 4 -83 8 -86 3 -3 17 -7 31 -8 l25 -3 0 89 0 89
-32 0 -33 0 1 -81z"/>
<path d="M1714 1913 l1 -88 30 0 30 0 3 88 3 87 -34 0 -34 0 1 -87z"/>
<path d="M1827 1993 c-3 -7 -2 -148 2 -163 0 -3 39 -6 86 -6 l85 0 0 88 0 88
-84 0 c-47 0 -87 -3 -89 -7z"/>
<path d="M2 1749 l3 -32 68 -1 c86 -1 108 6 104 36 -4 22 -9 23 -91 26 l-87 3
3 -32z"/>
<path d="M220 1751 c0 -23 5 -30 25 -33 29 -6 45 14 38 43 -4 13 -14 19 -34
19 -25 0 -29 -4 -29 -29z"/>
<path d="M350 1751 c0 -31 14 -41 45 -32 14 4 20 15 20 34 1 24 -3 27 -32 27
-30 0 -33 -3 -33 -29z"/>
<path d="M490 1748 c0 -31 2 -33 32 -32 29 1 32 4 33 32 1 30 -2 32 -32 32
-31 0 -33 -2 -33 -32z"/>
<path d="M640 1751 c0 -22 5 -30 24 -33 30 -6 46 8 46 39 0 20 -5 23 -35 23
-32 0 -35 -3 -35 -29z"/>
<path d="M800 1751 c0 -22 5 -30 24 -33 30 -6 46 8 46 39 0 20 -5 23 -35 23
-32 0 -35 -3 -35 -29z"/>
<path d="M969 1775 c-1 -3 -1 -14 -1 -25 0 -34 1 -36 30 -35 23 1 27 7 30 33
3 30 1 32 -27 32 -17 0 -31 -2 -32 -5z"/>
<path d="M1130 1751 c0 -17 5 -31 10 -32 50 -6 55 -3 55 26 0 27 -4 30 -32 33
-31 3 -33 1 -33 -27z"/>
<path d="M1292 1751 c1 -22 7 -30 22 -33 34 -7 46 2 46 33 0 26 -3 29 -34 29
-32 0 -35 -2 -34 -29z"/>
<path d="M1444 1753 c2 -16 4 -30 5 -33 0 -3 15 -5 31 -5 27 0 30 3 30 33 0
30 -2 32 -34 32 -32 0 -35 -2 -32 -27z"/>
<path d="M1586 1772 c-6 -10 4 -52 13 -53 51 -7 51 -6 51 28 0 30 -3 33 -29
33 -17 0 -32 -4 -35 -8z"/>
<path d="M1716 1772 c-6 -10 -3 -33 7 -48 3 -6 18 -9 32 -6 20 3 25 10 25 33
0 25 -4 29 -29 29 -17 0 -32 -4 -35 -8z"/>
<path d="M1825 1755 c0 -14 5 -29 12 -33 9 -5 111 -7 156 -3 4 1 7 15 7 31 l0
30 -88 0 c-88 0 -88 0 -87 -25z"/>
<path d="M2 1619 l3 -33 70 1 c108 1 104 0 102 31 l-2 27 -88 3 -88 3 3 -32z"/>
<path d="M220 1621 c0 -42 54 -52 60 -11 5 32 -1 40 -30 40 -26 0 -30 -3 -30
-29z"/>
<path d="M350 1620 c0 -17 6 -31 13 -31 6 -1 19 -2 27 -3 21 -2 28 11 22 40
-3 19 -11 24 -33 24 -26 0 -29 -4 -29 -30z"/>
<path d="M490 1621 c0 -31 16 -43 47 -35 13 4 19 13 17 27 -1 12 -3 25 -3 30
-1 4 -14 7 -31 7 -26 0 -30 -3 -30 -29z"/>
<path d="M640 1620 c0 -16 5 -30 10 -31 49 -6 54 -3 57 29 4 31 3 32 -31 32
-33 0 -36 -2 -36 -30z"/>
<path d="M800 1620 c0 -16 5 -30 10 -31 49 -6 54 -3 57 29 4 31 3 32 -31 32
-33 0 -36 -2 -36 -30z"/>
<path d="M969 1638 c-1 -7 -2 -20 -3 -28 -2 -21 11 -28 40 -22 19 3 24 11 24
33 0 26 -4 29 -30 29 -17 0 -31 -6 -31 -12z"/>
<path d="M1130 1621 c0 -32 11 -40 46 -33 17 3 22 10 21 31 -2 22 -8 27 -35
29 -30 3 -32 1 -32 -27z"/>
<path d="M1292 1621 c-1 -30 16 -41 51 -33 11 2 17 13 17 33 0 26 -3 29 -33
29 -31 0 -34 -3 -35 -29z"/>
<path d="M1442 1623 c3 -34 12 -41 44 -35 19 3 24 11 24 33 0 26 -3 29 -35 29
-32 0 -35 -2 -33 -27z"/>
<path d="M1588 1638 c-9 -25 4 -59 19 -54 8 3 21 6 29 6 9 0 14 11 14 30 0 26
-3 30 -29 30 -16 0 -31 -5 -33 -12z"/>
<path d="M1713 1623 c1 -18 9 -30 22 -34 31 -9 45 1 45 32 0 26 -3 29 -35 29
-31 0 -34 -2 -32 -27z"/>
<path d="M1824 1620 c0 -25 4 -30 25 -31 28 -1 131 -1 144 0 4 1 7 15 7 31 l0
30 -88 0 -88 0 0 -30z"/>
<path d="M0 1478 l0 -33 77 1 c43 1 83 2 88 3 6 1 11 15 11 31 l2 30 -89 0
-89 0 0 -32z"/>
<path d="M220 1477 c0 -29 3 -33 23 -31 12 1 27 3 32 3 6 1 10 13 10 29 -1 23
-7 27 -33 30 -30 3 -32 1 -32 -31z"/>
<path d="M350 1476 c0 -30 3 -33 26 -30 32 3 37 8 39 39 1 22 -4 25 -32 25
-31 0 -33 -2 -33 -34z"/>
<path d="M490 1480 c0 -16 3 -30 8 -31 57 -6 55 -7 55 26 0 31 -4 35 -33 35
-27 0 -30 -3 -30 -30z"/>
<path d="M640 1480 c0 -19 5 -30 15 -31 8 -1 23 -2 32 -3 13 -1 18 8 20 32 3
30 1 32 -32 32 -32 0 -35 -2 -35 -30z"/>
<path d="M802 1478 c3 -32 10 -36 56 -29 4 1 9 15 10 31 2 28 0 30 -33 30 -35
0 -36 -1 -33 -32z"/>
<path d="M969 1508 c0 -2 -2 -13 -3 -26 -3 -25 10 -37 39 -37 15 0 21 8 23 33
3 30 1 32 -27 32 -17 0 -31 -1 -32 -2z"/>
<path d="M1130 1480 c0 -29 4 -32 35 -32 30 0 34 3 33 32 -1 27 -4 30 -35 30
-30 0 -33 -3 -33 -30z"/>
<path d="M1297 1503 c-14 -13 -7 -52 11 -55 34 -8 52 3 52 33 0 25 -4 29 -28
29 -16 0 -32 -3 -35 -7z"/>
<path d="M1442 1480 c-1 -29 3 -32 33 -32 31 0 35 3 35 32 0 27 -3 30 -33 30
-31 0 -34 -3 -35 -30z"/>
<path d="M1589 1508 c-11 -38 7 -68 38 -64 12 2 19 13 21 34 3 30 1 32 -27 32
-17 0 -31 -1 -32 -2z"/>
<path d="M1714 1480 c-1 -19 3 -30 12 -31 48 -5 49 -4 52 29 3 30 2 32 -30 32
-30 0 -33 -3 -34 -30z"/>
<path d="M1824 1481 c0 -35 6 -37 101 -36 l70 1 3 32 3 32 -89 0 -88 0 0 -29z"/>
<path d="M2 1328 l3 -33 83 -1 c45 -1 83 1 83 5 1 3 2 18 3 34 l2 27 -89 0
-88 0 3 -32z"/>
<path d="M220 1327 c0 -31 3 -34 29 -35 25 0 30 4 33 29 5 35 2 39 -34 39 -25
0 -28 -3 -28 -33z"/>
<path d="M350 1326 c0 -32 2 -35 30 -34 32 1 42 15 33 47 -4 15 -13 21 -34 21
-26 0 -29 -3 -29 -34z"/>
<path d="M490 1325 c0 -33 2 -35 30 -33 17 1 31 6 31 10 7 46 3 53 -29 56 -31
3 -32 2 -32 -33z"/>
<path d="M642 1327 c3 -28 6 -32 33 -32 26 0 30 3 30 30 0 26 -4 30 -33 32
-32 3 -33 2 -30 -30z"/>
<path d="M800 1328 c0 -34 8 -38 63 -29 5 0 7 13 5 28 -2 22 -9 27 -35 30 -31
4 -33 2 -33 -29z"/>
<path d="M968 1348 c-3 -7 -3 -22 0 -34 3 -18 11 -22 33 -22 26 1 29 4 29 35
0 30 -3 33 -29 33 -16 0 -31 -5 -33 -12z"/>
<path d="M1130 1326 c0 -30 3 -33 28 -31 40 3 40 3 38 35 -1 27 -4 30 -33 30
-31 0 -33 -2 -33 -34z"/>
<path d="M1292 1331 c-2 -25 2 -32 24 -37 31 -8 47 6 42 37 -2 17 -11 24 -33
26 -28 3 -31 1 -33 -26z"/>
<path d="M1447 1353 c-3 -4 -4 -19 -3 -33 1 -21 6 -25 31 -25 27 0 30 3 30 30
0 25 -4 31 -27 33 -14 2 -28 0 -31 -5z"/>
<path d="M1588 1326 c4 -31 7 -35 33 -34 26 1 29 5 29 32 0 29 -3 32 -33 34
-32 2 -33 1 -29 -32z"/>
<path d="M1719 1358 c0 -2 -3 -15 -5 -30 -4 -23 0 -29 20 -34 34 -8 46 2 46
37 0 26 -3 29 -30 29 -16 0 -30 -1 -31 -2z"/>
<path d="M1827 1353 c-3 -7 -3 -18 1 -49 1 -7 32 -11 87 -11 l85 0 0 34 0 33
-84 0 c-47 0 -87 -3 -89 -7z"/>
<path d="M0 1167 l0 -34 85 0 c47 0 86 3 86 8 1 5 2 16 2 24 0 8 -1 20 -2 25
0 6 -37 10 -86 10 l-85 0 0 -33z"/>
<path d="M220 1166 c0 -30 3 -33 28 -32 18 1 29 8 33 21 9 31 -1 45 -32 45
-26 0 -29 -3 -29 -34z"/>
<path d="M350 1166 c0 -32 2 -35 29 -34 22 1 30 7 33 22 7 34 -2 46 -33 46
-26 0 -29 -3 -29 -34z"/>
<path d="M490 1167 c0 -29 3 -33 29 -35 23 -2 30 3 33 21 7 35 -1 47 -33 47
-26 0 -29 -3 -29 -33z"/>
<path d="M643 1168 c2 -29 6 -33 32 -33 27 0 30 4 30 30 0 27 -4 30 -32 33
-32 3 -33 2 -30 -30z"/>
<path d="M803 1168 c2 -29 6 -33 32 -33 27 0 30 4 30 30 0 27 -4 30 -32 33
-32 3 -33 2 -30 -30z"/>
<path d="M969 1190 c-6 -51 -4 -55 29 -56 30 -1 32 1 32 33 0 30 -3 33 -30 33
-16 0 -30 -4 -31 -10z"/>
<path d="M1130 1166 c0 -30 3 -33 28 -31 40 3 40 3 38 35 -1 27 -4 30 -33 30
-31 0 -33 -2 -33 -34z"/>
<path d="M1292 1171 c-2 -25 2 -32 24 -37 31 -8 47 6 42 37 -2 18 -10 25 -33
27 -28 3 -31 0 -33 -27z"/>
<path d="M1447 1193 c-3 -5 -4 -19 -3 -33 1 -21 6 -25 31 -25 27 0 30 4 33 33
3 30 1 32 -27 32 -16 0 -32 -3 -34 -7z"/>
<path d="M1588 1188 c-3 -7 -2 -23 0 -35 3 -18 10 -23 33 -21 26 2 29 6 29 35
0 30 -3 33 -29 33 -16 0 -31 -5 -33 -12z"/>
<path d="M1717 1193 c-2 -5 -3 -19 -3 -33 1 -21 6 -25 31 -25 27 0 30 4 33 33
3 30 1 32 -27 32 -16 0 -32 -3 -34 -7z"/>
<path d="M1827 1193 c-2 -5 -3 -19 -3 -33 1 -25 2 -25 89 -26 l87 -1 0 34 0
33 -84 0 c-47 0 -87 -3 -89 -7z"/>
<path d="M17 1032 c-11 -2 -17 -13 -17 -33 l0 -29 88 0 87 0 1 30 c1 17 -1 30
-5 31 -19 3 -140 4 -154 1z"/>
<path d="M220 1003 c0 -30 3 -33 29 -33 31 0 41 14 32 45 -4 14 -15 20 -33 21
-25 0 -28 -3 -28 -33z"/>
<path d="M355 1032 c-3 -3 -5 -18 -5 -34 0 -27 3 -29 33 -26 32 3 41 18 26 47
-7 14 -44 23 -54 13z"/>
<path d="M501 1032 c-6 -2 -11 -17 -11 -33 0 -28 2 -30 33 -27 32 3 33 5 28
51 -1 12 -27 17 -50 9z"/>
<path d="M652 1032 c-7 -2 -12 -17 -12 -33 0 -27 3 -29 35 -29 33 0 35 2 33
29 -2 29 -26 43 -56 33z"/>
<path d="M812 1032 c-7 -2 -12 -17 -12 -33 0 -27 3 -29 35 -29 33 0 35 2 33
29 -2 29 -26 43 -56 33z"/>
<path d="M977 1028 c-8 -4 -13 -17 -12 -30 1 -18 8 -24 33 -26 30 -3 32 -1 32
30 0 27 -4 34 -20 34 -11 0 -26 -4 -33 -8z"/>
<path d="M1143 1033 c-7 -3 -13 -18 -13 -34 0 -26 3 -29 34 -29 31 0 34 2 32
30 0 17 -3 30 -6 31 -3 0 -12 2 -20 3 -8 2 -21 1 -27 -1z"/>
<path d="M1306 1028 c-9 -5 -16 -20 -16 -33 0 -22 5 -25 35 -25 32 0 35 3 35
29 0 32 -25 45 -54 29z"/>
<path d="M1458 1032 c-11 -2 -16 -12 -15 -30 2 -23 8 -28 35 -30 30 -3 32 -2
32 30 0 34 -8 39 -52 30z"/>
<path d="M1588 1008 c-5 -34 -2 -38 34 -38 24 0 28 4 28 30 0 17 -3 30 -7 31
-5 0 -18 2 -30 3 -16 2 -22 -4 -25 -26z"/>
<path d="M1727 1028 c-10 -5 -16 -19 -15 -33 2 -21 8 -25 35 -25 30 0 33 3 33
29 0 31 -25 45 -53 29z"/>
<path d="M1843 1030 c-11 -3 -19 -16 -20 -32 l-2 -28 90 0 90 0 -3 32 -3 32
-67 0 c-37 1 -75 -1 -85 -4z"/>
<path d="M0 837 l0 -33 84 0 c75 -1 85 1 90 19 10 41 -2 47 -90 47 l-84 0 0
-33z"/>
<path d="M220 837 c0 -31 3 -34 29 -35 31 -1 41 15 33 51 -3 11 -14 17 -33 17
-26 0 -29 -3 -29 -33z"/>
<path d="M350 837 c0 -29 3 -32 29 -33 25 -1 30 3 33 27 5 35 2 39 -34 39 -25
0 -28 -3 -28 -33z"/>
<path d="M490 837 c0 -29 3 -32 30 -33 17 -1 30 3 31 10 0 6 2 21 3 34 2 19
-2 22 -31 22 -31 0 -33 -2 -33 -33z"/>
<path d="M642 838 c5 -52 67 -49 66 3 -1 26 -4 29 -35 29 -32 0 -34 -2 -31
-32z"/>
<path d="M800 836 c0 -31 2 -33 32 -32 28 1 32 5 34 34 2 30 1 32 -32 32 -32
0 -34 -2 -34 -34z"/>
<path d="M968 852 c-8 -29 5 -47 35 -48 24 -1 27 2 27 32 0 31 -3 34 -29 34
-19 0 -30 -6 -33 -18z"/>
<path d="M1132 838 c3 -29 6 -33 33 -33 27 0 30 3 30 30 0 27 -4 30 -33 33
-32 3 -33 2 -30 -30z"/>
<path d="M1295 858 c-11 -31 2 -53 31 -53 25 0 29 4 32 33 3 30 1 32 -28 32
-17 0 -33 -6 -35 -12z"/>
<path d="M1445 858 c-11 -31 2 -53 31 -53 25 0 29 4 32 33 3 30 1 32 -28 32
-17 0 -33 -6 -35 -12z"/>
<path d="M1588 846 c-7 -33 2 -42 35 -42 24 0 27 4 27 33 0 30 -3 33 -29 33
-22 0 -30 -5 -33 -24z"/>
<path d="M1714 838 c1 -30 5 -33 31 -33 27 0 30 4 33 33 3 30 2 32 -31 32 -32
0 -34 -2 -33 -32z"/>
<path d="M1827 856 c-3 -8 -3 -23 -1 -33 5 -16 16 -19 90 -19 l84 0 0 33 0 33
-84 0 c-63 0 -85 -4 -89 -14z"/>
<path d="M0 673 l0 -34 88 3 87 3 0 30 0 30 -87 1 -88 1 0 -34z"/>
<path d="M220 674 c0 -31 3 -34 28 -34 36 0 39 4 34 38 -3 24 -9 29 -33 30
-27 1 -29 -2 -29 -34z"/>
<path d="M350 673 c0 -30 3 -33 29 -33 32 0 40 12 33 46 -3 18 -11 22 -33 22
-26 -1 -29 -4 -29 -35z"/>
<path d="M490 673 c0 -30 3 -33 30 -33 29 0 33 4 33 35 0 32 -4 35 -33 33 -27
-2 -30 -6 -30 -35z"/>
<path d="M643 694 c-11 -29 2 -49 31 -49 29 0 41 20 30 50 -7 17 -54 16 -61
-1z"/>
<path d="M804 696 c-11 -30 1 -50 31 -53 27 -3 31 0 33 24 1 15 -4 30 -10 35
-20 12 -48 9 -54 -6z"/>
<path d="M969 698 c-7 -46 -3 -53 29 -56 31 -3 32 -2 32 33 0 33 -2 35 -30 33
-16 -1 -30 -6 -31 -10z"/>
<path d="M1135 702 c-3 -3 -5 -18 -5 -34 0 -27 3 -29 32 -26 29 3 33 7 34 33
1 27 -3 30 -27 31 -15 1 -31 -1 -34 -4z"/>
<path d="M1299 702 c-1 -4 -2 -19 -3 -34 -2 -25 1 -28 30 -28 30 0 32 2 31 32
-2 28 -6 33 -29 35 -16 1 -29 -1 -29 -5z"/>
<path d="M1452 701 c-7 -4 -11 -18 -9 -32 3 -19 11 -25 36 -27 31 -3 32 -2 29
29 -3 33 -29 47 -56 30z"/>
<path d="M1586 694 c-11 -28 6 -54 35 -54 26 0 29 3 29 35 0 33 -2 35 -30 33
-16 -1 -32 -8 -34 -14z"/>
<path d="M1719 702 c-8 -47 -3 -57 29 -60 32 -3 33 -2 30 30 -3 28 -7 33 -30
35 -16 1 -29 -1 -29 -5z"/>
<path d="M1829 701 c-1 -3 -2 -18 -3 -33 l-2 -28 88 0 88 0 0 33 0 34 -85 0
c-47 0 -86 -3 -86 -6z"/>
<path d="M0 523 l0 -33 85 0 c47 0 85 3 86 8 0 4 2 17 5 30 5 26 10 24 -93 27
l-83 1 0 -33z"/>
<path d="M220 523 c0 -31 2 -33 33 -33 29 0 33 3 31 23 -1 12 -3 27 -3 33 -1
6 -14 10 -31 10 -27 0 -30 -3 -30 -33z"/>
<path d="M350 523 c0 -30 3 -33 29 -33 31 0 43 16 34 48 -4 15 -13 20 -34 20
-26 -1 -29 -4 -29 -35z"/>
<path d="M490 523 c0 -30 3 -33 29 -33 20 0 30 6 34 19 7 28 -11 51 -38 49
-21 -2 -25 -8 -25 -35z"/>
<path d="M645 552 c-3 -3 -5 -18 -5 -34 0 -27 3 -29 33 -26 27 2 33 8 35 31 2
15 0 28 -5 28 -31 5 -53 5 -58 1z"/>
<path d="M805 552 c-3 -3 -5 -18 -5 -34 0 -27 3 -29 33 -26 28 3 32 6 32 33 0
26 -4 30 -27 31 -15 1 -30 -1 -33 -4z"/>
<path d="M969 544 c-4 -48 -4 -49 29 -52 30 -3 32 -2 32 31 0 31 -3 34 -30 35
-19 0 -30 -4 -31 -14z"/>
<path d="M1130 524 c0 -32 2 -34 33 -34 30 0 33 2 33 33 0 30 -3 33 -33 34
-31 1 -33 -1 -33 -33z"/>
<path d="M1299 557 c0 -1 -2 -17 -4 -34 -3 -32 -2 -33 31 -33 34 0 35 1 32 32
-3 28 -7 33 -30 35 -16 1 -28 1 -29 0z"/>
<path d="M1449 558 c-1 -2 -2 -18 -4 -35 -2 -31 0 -33 32 -33 32 0 34 2 31 32
-2 26 -8 32 -30 35 -16 2 -29 2 -29 1z"/>
<path d="M1588 528 c-5 -34 -2 -38 34 -38 25 0 28 3 28 34 0 32 -2 35 -29 34
-24 -1 -30 -6 -33 -30z"/>
<path d="M1715 540 c-10 -30 5 -50 37 -50 27 0 29 2 26 33 -3 27 -7 32 -30 33
-18 1 -30 -5 -33 -16z"/>
<path d="M1826 551 c-2 -3 -3 -17 -1 -31 2 -24 4 -25 88 -28 l87 -3 0 34 0 34
-86 -1 c-47 0 -87 -2 -88 -5z"/>
<path d="M10 412 c-6 -2 -10 -17 -10 -33 l0 -29 88 0 88 0 0 30 c0 17 -4 30
-10 31 -39 3 -148 3 -156 1z"/>
<path d="M243 412 c-18 -3 -23 -10 -23 -33 0 -26 3 -29 30 -29 29 0 35 8 30
40 -3 21 -12 27 -37 22z"/>
<path d="M356 412 c-3 -3 -6 -18 -6 -34 0 -24 4 -28 29 -28 29 0 46 26 32 47
-7 12 -48 23 -55 15z"/>
<path d="M518 412 c-24 -3 -28 -8 -28 -33 0 -28 2 -30 32 -27 24 2 32 8 33 25
2 31 -6 38 -37 35z"/>
<path d="M652 412 c-7 -2 -12 -17 -12 -33 0 -27 3 -29 35 -29 33 0 35 2 33 29
-2 29 -26 43 -56 33z"/>
<path d="M818 412 c-12 -2 -18 -13 -18 -33 0 -26 3 -29 33 -29 31 0 34 3 35
29 1 30 -16 41 -50 33z"/>
<path d="M973 407 c-3 -5 -6 -19 -8 -33 -2 -21 2 -24 31 -24 32 0 34 2 34 33
0 28 -3 32 -26 32 -14 0 -28 -4 -31 -8z"/>
<path d="M1148 412 c-12 -2 -18 -13 -18 -33 0 -26 3 -29 33 -29 29 0 32 3 33
29 2 30 -14 41 -48 33z"/>
<path d="M1317 412 c-23 -3 -27 -7 -25 -33 2 -26 6 -29 35 -29 30 0 33 3 33
29 0 34 -5 38 -43 33z"/>
<path d="M1463 412 c-17 -2 -21 -10 -21 -33 1 -26 4 -29 35 -29 30 0 33 3 33
29 0 31 -12 39 -47 33z"/>
<path d="M1613 412 c-45 -7 -38 -62 8 -62 25 0 29 4 29 29 0 34 -6 39 -37 33z"/>
<path d="M1735 411 c-13 -4 -20 -15 -21 -33 -1 -25 2 -28 32 -28 31 0 34 3 34
29 0 31 -14 41 -45 32z"/>
<path d="M1850 410 c-19 -4 -26 -12 -27 -32 l-2 -28 89 0 90 0 0 33 0 32 -63
0 c-34 0 -73 -2 -87 -5z"/>
<path d="M0 253 l0 -34 87 3 c75 3 86 5 89 22 5 38 -4 42 -91 42 l-85 0 0 -33z"/>
<path d="M226 283 c-3 -4 -6 -19 -6 -35 0 -24 4 -28 29 -28 22 0 30 5 33 24 3
14 2 29 -1 33 -7 10 -46 14 -55 6z"/>
<path d="M350 253 c0 -30 3 -33 29 -33 20 0 31 6 33 18 8 34 -3 51 -33 50 -26
-1 -29 -4 -29 -35z"/>
<path d="M490 253 c0 -33 2 -34 33 -31 28 3 32 6 32 33 0 27 -3 30 -32 31 -31
0 -33 -2 -33 -33z"/>
<path d="M653 283 c-7 -2 -13 -18 -13 -34 0 -26 3 -29 33 -29 29 0 33 3 33 28
1 36 -19 49 -53 35z"/>
<path d="M804 281 c-2 -2 -4 -17 -4 -33 0 -24 4 -28 29 -28 35 0 45 12 37 45
-5 19 -12 24 -32 23 -14 -2 -27 -4 -30 -7z"/>
<path d="M969 279 c-6 -48 -3 -54 29 -57 30 -3 32 -1 32 30 0 30 -3 33 -30 34
-16 1 -30 -2 -31 -7z"/>
<path d="M1137 283 c-4 -3 -7 -19 -7 -35 0 -27 3 -29 33 -26 28 3 32 7 32 32
0 24 -5 30 -26 33 -14 2 -29 0 -32 -4z"/>
<path d="M1298 281 c0 -3 -2 -18 -2 -33 -2 -25 2 -28 32 -28 32 0 33 2 30 33
-3 27 -7 32 -30 33 -16 1 -29 -2 -30 -5z"/>
<path d="M1446 282 c-2 -4 -3 -18 -2 -32 1 -21 7 -26 34 -28 32 -3 33 -2 30
30 -3 28 -7 33 -30 35 -15 1 -29 -1 -32 -5z"/>
<path d="M1586 275 c-11 -29 6 -55 35 -55 26 0 29 3 29 33 0 31 -3 34 -29 35
-16 0 -32 -5 -35 -13z"/>
<path d="M1716 281 c-2 -3 -3 -17 -2 -31 1 -21 7 -26 34 -28 32 -3 33 -2 30
30 -3 28 -7 33 -31 34 -15 1 -29 -2 -31 -5z"/>
<path d="M1829 281 c-1 -3 -2 -18 -3 -33 l-2 -28 89 0 88 0 -3 33 -3 32 -82 1
c-46 0 -84 -2 -84 -5z"/>
<path d="M4 171 c-2 -2 -4 -42 -4 -88 l0 -83 88 0 87 0 -1 83 c-1 45 -2 84 -3
87 -1 7 -160 7 -167 1z"/>
<path d="M220 88 l0 -88 30 0 c33 0 32 -2 32 85 0 93 1 91 -32 90 l-30 0 0
-87z"/>
<path d="M354 171 c-2 -2 -4 -42 -4 -88 l0 -84 32 3 33 3 -2 75 c-1 41 -2 80
-2 86 -1 11 -47 15 -57 5z"/>
<path d="M490 88 l0 -88 33 0 33 0 -1 80 c-1 44 -5 83 -9 87 -4 4 -18 8 -31 9
-25 1 -25 0 -25 -88z"/>
<path d="M645 172 c-3 -3 -5 -43 -5 -89 l0 -83 34 0 33 0 -1 87 -1 87 -27 1
c-15 1 -30 0 -33 -3z"/>
<path d="M805 172 c-3 -3 -5 -43 -5 -89 l0 -83 34 0 33 0 -1 87 -1 87 -27 1
c-15 1 -30 0 -33 -3z"/>
<path d="M969 161 c-1 -9 -2 -47 -2 -86 l-1 -70 32 -3 33 -3 -3 87 -3 88 -27
1 c-19 1 -28 -3 -29 -14z"/>
<path d="M1141 172 c-7 -2 -11 -34 -11 -88 l0 -85 32 3 33 3 1 75 c1 41 -1 80
-3 87 -4 11 -27 13 -52 5z"/>
<path d="M1303 171 c-6 -3 -10 -41 -9 -86 l1 -80 33 -3 32 -3 0 85 c0 47 -3
86 -7 87 -5 0 -15 2 -24 4 -9 1 -21 0 -26 -4z"/>
<path d="M1446 171 c-2 -3 -3 -42 -2 -86 l1 -80 33 -3 33 -3 -3 87 -3 88 -28
1 c-15 1 -29 -1 -31 -4z"/>
<path d="M1589 160 c-1 -8 -1 -46 -2 -85 l-1 -70 32 -3 32 -3 0 89 0 90 -30
-2 c-19 0 -30 -6 -31 -16z"/>
<path d="M1719 175 c-1 0 -2 -39 -3 -87 l-2 -88 33 0 33 0 0 88 0 88 -30 -1
c-16 0 -31 0 -31 0z"/>
<path d="M1840 172 c-13 -2 -16 -19 -15 -87 l0 -85 88 0 88 0 -3 87 -3 88 -70
0 c-38 0 -77 -1 -85 -3z"/>
</g>
</svg>
