<?xml version="1.0" standalone="no"?>
<!DOCTYPE svg PUBLIC "-//W3C//DTD SVG 20010904//EN"
 "http://www.w3.org/TR/2001/REC-SVG-20010904/DTD/svg10.dtd">
<svg version="1.0" xmlns="http://www.w3.org/2000/svg"
 width="267.000000pt" height="267.000000pt" viewBox="0 0 267.000000 267.000000"
 preserveAspectRatio="xMidYMid meet">
<metadata>
Created by potrace 1.14, written by Peter Selinger 2001-2017
</metadata>
<g transform="translate(0.000000,267.000000) scale(0.100000,-0.100000)"
fill="#000000" stroke="none">
<path d="M30 1335 l0 -1335 1300 0 1300 0 0 1335 0 1335 -1300 0 -1300 0 0
-1335z m1454 1029 c128 -27 246 -82 361 -170 106 -80 162 -156 195 -261 37
-119 22 -229 -49 -378 -67 -140 -175 -269 -400 -475 -129 -119 -170 -160 -163
-162 4 0 176 -2 382 -4 206 -1 381 -2 388 -3 9 -1 12 -57 12 -247 l0 -246
-742 5 c-409 3 -770 8 -803 11 -203 20 -270 58 -268 154 1 78 50 133 275 309
85 67 161 127 169 135 8 7 46 40 84 73 38 33 86 74 105 90 89 77 322 318 359
373 46 68 54 105 35 151 -34 80 -137 133 -256 132 -106 -1 -126 -7 -271 -73
-123 -55 -172 -63 -214 -32 -51 37 -193 269 -193 315 0 37 53 80 164 134 185
90 372 154 499 171 23 4 44 8 46 9 10 10 227 1 285 -11z"/>
</g>
</svg>
